Coordinates
version=1
nRows=6
nColumns=63
inDegrees=yes

Units are S.I. units (second, meters, Newtons, ...)
If the header above contains a line with 'inDegrees', this indicates whether rotational values are in degrees (yes) or radians (no).

endheader
time	pelvis_tilt	pelvis_list	pelvis_rotation	pelvis_tx	pelvis_ty	pelvis_tz	hip_flexion_r	hip_adduction_r	hip_rotation_r	knee_angle_r	knee_angle_r_beta	ankle_angle_r	subtalar_angle_r	mtp_angle_r	hip_flexion_l	hip_adduction_l	hip_rotation_l	knee_angle_l	knee_angle_l_beta	ankle_angle_l	subtalar_angle_l	mtp_angle_l	L5_S1_Flex_Ext	L5_S1_Lat_Bending	L5_S1_axial_rotation	L4_L5_Flex_Ext	L4_L5_Lat_Bending	L4_L5_axial_rotation	L3_L4_Flex_Ext	L3_L4_Lat_Bending	L3_L4_axial_rotation	L2_L3_Flex_Ext	L2_L3_Lat_Bending	L2_L3_axial_rotation	L1_L2_Flex_Ext	L1_L2_Lat_Bending	L1_L2_axial_rotation	L1_T12_Flex_Ext	L1_T12_Lat_Bending	L1_T12_axial_rotation	Abs_r3	Abs_r2	Abs_r1	Abs_t1	Abs_t2	neck_flexion	neck_bending	neck_rotation	arm_flex_r	arm_add_r	arm_rot_r	elbow_flex_r	pro_sup_r	wrist_flex_r	wrist_dev_r	arm_flex_l	arm_add_l	arm_rot_l	elbow_flex_l	pro_sup_l	wrist_flex_l	wrist_dev_l
      3.95000000	     -4.39151005	     -3.20636549	     81.44194056	      0.10476708	      1.05687683	      0.32611135	      7.76523321	     -4.24000366	    -11.87298548	     17.24817996	      0.30103753	     42.65252045	     18.26818386	      0.00000000	      5.50535465	      2.83931165	     -9.81055535	     13.35493792	      0.23308764	     35.14589166	      8.47711765	      0.00000000	     -0.14110605	     -0.06673535	      0.85301998	     -0.26204804	     -0.08875801	      0.90633373	     -0.23182312	     -0.16226032	      0.90633373	     -0.16127010	     -0.16226032	      0.74639249	     -0.13103107	     -0.13608672	      0.69307874	     -0.08062799	     -0.10337305	      0.63976499	     -1.00790637	     -0.75492357	      4.74424124	      0.00000000	      0.00000000	     18.31186367	     -4.43693924	     -5.11202532	      7.82616807	    -11.90365684	    124.68497273	      8.22355554	      4.24866803	     -6.42576441	    -21.34882139	      8.14964630	    -10.30074238	    182.57612806	      4.38957211	      5.28083020	    -10.11642773	     -1.69321488
      3.96666667	     -4.38576115	     -3.19930195	     81.32216790	      0.10492256	      1.05661047	      0.32670326	      7.70746094	     -4.20447954	    -11.58348593	     17.14348703	      0.29921029	     42.26572263	     18.25104718	      0.00000000	      5.52587953	      2.84307410	     -9.64306384	     13.42536821	      0.23431688	     35.03477684	      8.08331891	      0.00000000	     -0.15516627	     -0.05516221	      0.76678670	     -0.28815927	     -0.07336574	      0.81471087	     -0.25492266	     -0.13412141	      0.81471087	     -0.17733953	     -0.13412141	      0.67093837	     -0.14408740	     -0.11248679	      0.62301420	     -0.08866200	     -0.08544627	      0.57509003	     -1.10833713	     -0.62400599	      4.26463762	      0.00000000	      0.00000000	     18.62381604	     -4.46127233	     -4.11075559	      8.17912441	    -11.99308893	    124.53058190	      8.41697305	      4.28514333	     -5.92906433	    -21.41788240	      7.90392478	    -10.26422128	    183.68389216	      3.98308499	      5.68757537	    -10.45959495	     -1.54056322
      3.98333333	     -4.37661203	     -3.16251734	     81.15877297	      0.10514502	      1.05632361	      0.32723747	      7.61708065	     -4.16257459	    -11.17713140	     17.06132534	      0.29777630	     41.92541871	     18.20012700	      0.00000000	      5.50891163	      2.88481746	     -9.12801566	     13.47767036	      0.23522972	     34.86379468	      7.22765052	      0.00000000	     -0.17278010	     -0.04158128	      0.67692292	     -0.32086993	     -0.05530310	      0.71923060	     -0.28386043	     -0.10110072	      0.71923060	     -0.19747038	     -0.10110072	      0.59230756	     -0.16044360	     -0.08479255	      0.54999987	     -0.09872655	     -0.06440940	      0.50769219	     -1.23415099	     -0.47037576	      3.76484221	      0.00000000	      0.00000000	     18.89756294	     -4.63207401	     -3.12311149	      8.50172840	    -12.10138642	    123.63056903	      8.65422591	      4.62914085	     -5.31465605	    -21.40719035	      7.57204494	    -10.26489368	    185.51576393	      3.37953344	      5.57725308	    -10.65406590	     -1.40324391
      4.00000000	     -4.42361569	     -3.11632782	     80.89920361	      0.10540591	      1.05602071	      0.32799765	      7.58830104	     -4.18683649	    -10.63929570	     17.04897601	      0.29756077	     41.67603078	     18.14629475	      0.00000000	      5.50478422	      2.86816687	     -9.74112202	     13.58527992	      0.23710786	     34.85118736	      7.70460232	      0.00000000	     -0.20045492	     -0.03747709	      0.64262024	     -0.37226483	     -0.04984453	      0.68278401	     -0.32932739	     -0.09112179	      0.68278401	     -0.22909993	     -0.09112179	      0.56229271	     -0.18614244	     -0.07642328	      0.52212895	     -0.11453994	     -0.05805201	      0.48196518	     -1.43182944	     -0.42394833	      3.57406099	      0.00000000	      0.00000000	     19.22030109	     -4.82940865	     -2.58420315	      8.71780524	    -12.07225069	    123.61165887	      8.52559247	      4.38637298	     -4.79580041	    -21.40584986	      7.50956153	    -10.25516799	    186.15146882	      3.15946883	      5.83729181	    -10.86596704	     -1.36368941
      4.01666667	     -4.40980167	     -3.09957502	     81.02716922	      0.10504196	      1.05572978	      0.32835820	      7.46893404	     -4.20033820	    -10.63193906	     16.95207935	      0.29586960	     41.59051774	     18.18978874	      0.00000000	      5.51084869	      2.99002933	     -8.55005400	     13.59376150	      0.23725590	     34.59498202	      6.31405095	      0.00000000	     -0.21929686	     -0.02588337	      0.56701307	     -0.40725620	     -0.03442488	      0.60245138	     -0.36028281	     -0.06293282	      0.60245138	     -0.25063438	     -0.06293282	      0.49613643	     -0.20363907	     -0.05278136	      0.46069812	     -0.12530623	     -0.04009333	      0.42525980	     -1.56641555	     -0.29279782	      3.15355658	      0.00000000	      0.00000000	     19.28615275	     -5.13796945	     -2.30969495	      8.85323611	    -12.10490047	    123.58591696	      8.43031291	      4.24443024	     -4.32595473	    -21.32497600	      7.46510430	    -10.27791917	    184.46868480	      3.20438653	      5.81597187	    -10.79138676	     -1.74771330
      4.03333333	     -4.38299492	     -3.11140970	     81.10083181	      0.10504663	      1.05540906	      0.32862550	      7.43072355	     -4.18940525	    -10.67395333	     16.93909011	      0.29564289	     41.58822877	     18.32134157	      0.00000000	      5.54481630	      2.89148889	     -9.01244518	     13.69273269	      0.23898327	     34.69672017	      7.18848728	      0.00000000	     -0.23570247	     -0.02131215	      0.55743613	     -0.43772306	     -0.02834515	      0.59227589	     -0.38723559	     -0.05181835	      0.59227589	     -0.26938436	     -0.05181835	      0.48775661	     -0.21887332	     -0.04345973	      0.45291686	     -0.13468039	     -0.03301251	      0.41807710	     -1.68359919	     -0.24108726	      3.10029252	      0.00000000	      0.00000000	     19.18246832	     -5.26081455	     -2.47013516	      8.83625866	    -12.13576074	    122.84270587	      8.47963383	      4.53357774	     -4.52090463	    -21.27791856	      7.55680099	    -10.37051348	    182.50736509	      3.40347085	      5.65108596	    -10.73691430	     -2.42069975
